<svg width="1442" height="718" viewBox="0 0 1442 718" fill="none" xmlns="http://www.w3.org/2000/svg">
<path d="M751.036 3.74525C1025.64 -12.5566 1210.29 25.1051 1344.27 102.168C1411.35 140.749 1438.7 185.369 1441.72 232.228C1444.72 278.988 1423.47 327.724 1393.94 374.538C1364.36 421.426 1337.13 449.306 1289.2 473.833C1241.35 498.314 1172.86 519.459 1060.81 552.972C1004.81 569.724 943.823 591.91 880.446 614.574C817.082 637.234 751.337 660.368 685.857 678.992C554.934 716.23 424.862 735.506 316.805 696.773C208.785 658.053 113.279 565.209 56.0889 464.061C27.4891 413.478 8.44412 360.772 2.22075 311.66C-4.00228 262.551 2.58867 216.968 25.3487 180.722C48.102 144.486 87.7602 116.371 138.603 94.3077C189.455 72.2405 251.594 56.1874 319.438 44.1339C455.12 20.0279 613.812 11.8917 751.036 3.74525ZM1343.27 103.901C1209.76 27.1059 1025.54 -10.5469 751.154 5.74232C613.884 13.8915 455.328 22.0218 319.787 46.1027C252.019 58.1427 190.05 74.1627 139.398 96.1427C88.7368 118.127 49.4932 146.033 27.043 181.785C4.59963 217.527 -1.97894 262.606 4.20513 311.408C10.389 360.208 29.3282 412.667 57.8301 463.076C114.844 563.912 210.014 656.368 317.48 694.89C424.908 733.398 554.45 714.289 685.309 677.069C750.718 658.465 816.407 635.352 879.773 612.692C943.125 590.036 1004.17 567.827 1060.24 551.056C1172.35 517.522 1240.64 496.431 1288.29 472.053C1335.84 447.721 1362.82 420.12 1392.25 373.471C1421.72 326.748 1442.69 278.465 1439.72 232.357C1436.76 186.347 1409.95 142.25 1343.27 103.901ZM748.875 17.6378C1012.35 1.97501 1189.53 38.1599 1318.09 112.206C1382.46 149.279 1408.72 192.159 1411.61 237.196C1414.5 282.135 1394.1 328.969 1365.76 373.949C1337.38 419.003 1311.25 445.795 1265.25 469.364C1219.34 492.887 1153.61 513.204 1046.11 545.402C992.377 561.497 933.867 582.813 873.058 604.589C812.261 626.36 749.18 648.587 686.351 666.482C560.732 702.259 435.92 720.783 332.229 683.564C228.575 646.358 136.932 557.147 82.0557 459.959C54.613 411.357 36.3382 360.713 30.3663 313.522C24.3947 266.332 30.7187 222.527 52.5625 187.693C74.3997 152.869 112.459 125.852 161.245 104.652C210.041 83.4488 269.666 68.0236 334.762 56.4425C464.949 33.2813 617.212 25.4647 748.875 17.6378ZM1317.1 113.94C1189 40.1611 1012.26 3.98378 748.994 19.6339C617.285 27.4635 465.157 35.2762 335.111 58.4122C270.091 69.9798 210.637 85.3702 162.042 106.486C113.437 127.607 75.7913 154.414 54.2569 188.755C32.729 223.086 26.4178 266.388 32.3506 313.271C38.2832 360.151 56.4529 410.547 83.7979 458.976C138.498 555.851 229.805 644.674 332.904 681.681C435.966 718.674 560.248 700.317 685.803 664.558C748.56 646.684 811.585 624.478 872.383 602.706C933.168 580.939 991.74 559.6 1045.54 543.486C1153.11 511.267 1218.63 491.005 1264.34 467.585C1309.96 444.212 1335.84 417.698 1364.07 372.883C1392.35 327.994 1412.46 281.613 1409.61 237.325C1406.77 193.136 1381.06 150.779 1317.1 113.94ZM748.597 31.5304C1000.95 16.5066 1170.66 51.2143 1293.8 122.244C1355.46 157.809 1380.61 198.95 1383.39 242.166C1386.15 285.283 1366.61 330.214 1339.47 373.36C1312.28 416.58 1287.25 442.285 1243.18 464.896C1199.21 487.46 1136.26 506.95 1033.3 537.833C981.831 553.271 925.793 573.715 867.552 594.603C809.323 615.485 748.905 636.806 688.728 653.971C568.413 688.289 448.861 706.059 349.535 670.355C250.247 634.663 162.468 549.085 109.906 455.858C83.6206 409.235 66.1151 360.655 60.3946 315.383C54.6745 270.114 60.7317 228.087 81.6592 194.664C102.58 161.252 139.041 135.332 185.771 114.996C232.51 94.6562 289.619 79.8607 351.968 68.7521C476.66 46.5357 622.496 39.0378 748.597 31.5304ZM1292.8 123.977C1170.12 53.2154 1000.86 18.5154 748.716 33.5265C622.568 41.0366 476.869 48.5297 352.318 70.7208C290.046 81.816 233.107 96.5778 186.568 116.83C140.02 137.087 103.973 162.796 83.3545 195.726C62.7423 228.645 56.6975 270.169 62.379 315.132C68.0601 360.093 85.4604 408.426 111.648 454.875C164.034 547.79 251.478 632.98 350.211 668.472C448.907 703.95 567.928 686.347 688.179 652.047C748.284 634.903 808.646 613.604 866.876 592.721C925.093 571.842 981.193 551.374 1032.72 535.917C1135.75 505.012 1198.49 485.578 1242.27 463.116C1285.96 440.701 1310.74 415.276 1337.78 372.295C1364.86 329.24 1384.12 284.761 1381.39 242.294C1378.67 199.925 1354.05 159.308 1292.8 123.977ZM747.417 46.5802C989.007 32.2488 1151.48 65.3573 1269.38 133.118C1328.41 167.048 1352.51 206.304 1355.16 247.549C1357.81 288.694 1339.1 331.565 1313.11 372.724C1287.08 413.957 1263.11 438.483 1220.92 460.056C1178.81 481.582 1118.54 500.174 1019.98 529.634C970.712 544.359 917.067 563.861 861.311 583.785C805.567 603.705 747.726 624.043 690.115 640.417C574.934 673.153 460.473 690.109 365.373 656.045C270.311 621.995 186.27 540.354 135.947 451.417C110.781 406.94 94.0203 360.592 88.543 317.4C83.066 274.21 88.8653 234.108 108.907 202.214C128.942 170.331 163.856 145.602 208.595 126.202C253.344 106.798 308.02 92.6838 367.709 82.087C487.083 60.8943 626.698 53.7414 747.417 46.5802ZM1268.38 134.852C1150.95 67.3579 988.913 34.2584 747.535 48.5773C626.77 55.7412 487.291 62.8881 368.059 84.0558C308.445 94.6392 253.939 108.72 209.391 128.037C164.832 147.359 130.333 171.877 110.601 203.277C90.8755 234.667 85.0894 274.265 90.5274 317.148C95.9651 360.028 112.62 406.128 137.689 450.432C187.835 539.056 271.539 620.31 366.048 654.162C460.519 688.001 574.451 671.211 689.568 638.493C747.108 622.14 804.893 601.823 860.638 581.902C916.37 561.986 970.077 542.461 1019.41 527.717C1118.04 498.236 1178.1 479.699 1220.01 458.276C1261.82 436.898 1285.54 412.651 1311.42 371.656C1337.35 330.588 1355.77 288.17 1353.17 247.677C1350.56 207.283 1327.01 168.549 1268.38 134.852ZM745.256 60.4728C975.723 46.7803 1130.72 78.412 1243.2 143.156C1299.52 175.578 1322.52 213.095 1325.06 252.518C1327.58 291.842 1309.73 332.81 1284.94 372.135C1260.1 411.534 1237.23 434.972 1196.97 455.587C1156.8 476.156 1099.3 493.92 1005.28 522.065C958.284 536.133 907.111 554.764 853.923 573.8C800.747 592.831 745.568 612.263 690.609 627.906C580.732 659.183 471.531 675.384 380.797 642.835C290.101 610.299 209.924 532.292 161.915 447.316C137.906 404.819 121.914 360.533 116.689 319.261C111.463 277.991 116.995 239.667 136.121 209.185C155.24 178.713 188.555 155.083 231.237 136.547C273.93 118.006 326.092 104.52 383.033 94.3956C496.912 74.1477 630.099 67.3145 745.256 60.4728ZM1242.2 144.89C1130.19 80.413 975.629 48.7891 745.375 62.4689C630.172 69.3133 497.12 76.1426 383.383 96.3654C326.517 106.476 274.526 119.928 232.034 138.381C189.533 156.839 156.632 180.259 137.815 210.248C119.006 240.227 113.486 278.047 118.673 319.01C123.859 359.971 139.745 404.008 163.656 446.331C211.489 530.995 291.33 608.616 381.473 640.953C471.577 673.277 580.249 657.241 690.063 625.983C744.95 610.359 800.072 590.949 853.249 571.917C906.414 552.89 957.648 534.236 1004.71 520.149C1098.8 491.982 1156.09 474.273 1196.06 453.807C1235.94 433.387 1258.56 410.229 1283.25 371.068C1307.98 331.835 1325.55 291.318 1323.06 252.646C1320.58 214.072 1298.12 177.079 1242.2 144.89ZM744.076 74.3654C963.779 61.312 1111.54 91.4669 1218.78 153.194C1272.48 184.108 1294.41 219.885 1296.83 257.486C1299.24 294.99 1282.21 334.056 1258.58 371.547C1234.9 409.112 1213.09 431.462 1174.71 451.119C1136.41 470.73 1081.59 487.665 991.967 514.495C947.167 527.906 898.387 545.667 847.684 563.815C796.993 581.957 744.391 600.481 691.999 615.395C587.255 645.211 483.144 660.661 396.635 629.626C310.164 598.605 233.725 524.231 187.955 443.215C165.065 402.699 149.82 360.475 144.837 321.122C139.855 281.772 145.129 245.226 163.368 216.155C181.601 187.095 213.369 164.563 254.062 146.891C294.764 129.214 344.491 116.357 398.773 106.705C507.334 87.4021 634.301 80.8875 744.076 74.3654ZM1217.78 154.928C1111.01 93.4679 963.684 63.3207 744.194 76.3615C634.373 82.8864 507.543 89.396 399.124 108.674C344.917 118.313 295.359 131.135 254.857 148.725C214.346 166.319 182.993 188.641 165.063 217.218C147.139 245.785 141.878 281.828 146.821 320.871C151.765 359.912 166.906 401.887 189.697 442.231C235.29 522.934 311.393 596.922 397.311 627.744C483.19 658.553 586.771 643.27 691.451 613.472C743.772 598.578 796.316 580.074 847.009 561.931C897.689 543.792 946.531 526.009 991.394 512.579C1081.09 485.728 1135.7 468.847 1173.79 449.339C1211.8 429.877 1233.36 407.807 1256.89 370.481C1280.46 333.081 1297.21 294.467 1294.84 257.615C1292.47 220.862 1271.08 185.608 1217.78 154.928ZM743.797 88.2579C952.376 75.8436 1092.67 104.521 1194.48 163.233C1245.47 192.638 1266.31 226.675 1268.61 262.455C1270.9 298.137 1254.72 335.301 1232.29 370.958C1209.8 406.688 1189.1 427.951 1152.64 446.651C1116.28 465.303 1064.23 481.41 979.149 506.926C936.621 519.679 890.313 536.57 842.177 553.828C794.054 571.082 744.115 588.7 694.375 602.884C594.935 631.24 496.085 645.938 413.941 616.417C331.836 586.91 259.261 516.169 215.806 439.113C194.073 400.577 179.596 360.416 174.865 322.984C170.134 285.554 175.142 250.785 192.465 223.126C209.782 195.478 239.951 174.044 278.586 157.235C317.232 140.422 364.445 128.193 415.98 119.014C519.045 100.655 639.584 94.4606 743.797 88.2579ZM1193.48 164.965C1092.14 106.522 952.282 77.8523 743.916 90.254C639.657 96.4594 519.254 102.65 416.331 120.984C364.872 130.15 317.828 142.344 279.384 159.069C240.929 175.8 211.174 197.022 194.159 224.188C177.151 251.343 172.158 285.608 176.85 322.733C181.541 359.854 195.912 399.768 217.547 438.131C260.826 514.874 333.066 585.227 414.617 614.535C496.13 643.829 594.451 629.298 693.827 600.96C743.496 586.797 793.377 569.2 841.502 551.945C889.614 534.695 935.983 517.782 978.575 505.01C1063.73 479.473 1115.57 463.421 1151.73 444.871C1187.8 426.368 1208.26 405.385 1230.59 369.893C1252.97 334.327 1268.86 297.616 1266.61 262.584C1264.37 227.651 1244.07 194.137 1193.48 164.965ZM742.617 103.308C940.432 91.5857 1073.49 118.664 1170.06 174.106C1218.43 201.876 1238.2 234.029 1240.38 267.838C1242.56 301.548 1227.21 336.652 1205.93 370.321C1184.6 404.065 1164.96 424.15 1130.38 441.811C1095.89 459.425 1046.52 474.635 965.834 498.727C925.503 510.768 881.588 526.715 835.937 543.011C790.298 559.302 742.937 575.937 695.764 589.33C601.456 616.105 507.697 629.986 429.78 602.108C351.901 574.242 283.064 507.438 241.847 434.673C221.234 398.282 207.502 360.354 203.014 325C198.526 289.649 203.275 256.806 219.713 230.676C236.144 204.557 264.766 184.313 301.411 168.441C338.066 152.563 382.846 141.016 431.722 132.349C529.468 115.014 643.786 109.164 742.617 103.308ZM1169.06 175.84C1072.96 120.665 940.338 93.5944 742.735 105.304C643.858 111.163 529.676 117.009 432.07 134.318C383.27 142.973 338.66 154.485 302.206 170.276C265.741 186.071 237.533 206.104 221.405 231.741C205.285 257.367 200.549 289.705 204.998 324.748C209.446 359.789 223.072 397.469 243.587 433.687C284.627 506.139 353.128 572.557 430.454 600.225C507.743 627.879 600.973 614.163 695.217 587.406C742.319 574.034 789.624 557.42 835.264 541.128C880.891 524.841 924.867 508.87 965.262 496.81C1046.02 472.697 1095.18 457.542 1129.47 440.029C1163.67 422.563 1183.06 402.758 1204.24 369.253C1225.46 335.674 1240.52 301.024 1238.39 267.967C1236.26 235.009 1217.03 203.379 1169.06 175.84ZM740.456 117.2C927.147 106.117 1052.73 131.718 1143.88 184.144C1189.54 210.406 1208.22 240.82 1210.28 272.808C1212.33 304.697 1197.84 337.897 1177.75 369.733C1157.62 401.642 1139.08 420.639 1106.43 437.342C1073.87 453.999 1027.28 468.381 951.135 491.157C913.074 502.542 871.631 517.618 828.548 533.026C785.477 548.428 740.779 564.156 696.258 576.819C607.255 602.134 518.755 615.263 445.204 588.899C371.691 562.547 306.717 499.376 267.815 430.571C248.358 396.161 235.396 360.295 231.159 326.861C226.923 293.431 231.405 262.366 246.927 237.648C262.442 212.94 289.465 193.795 324.054 178.785C358.652 163.771 400.917 152.854 447.045 144.658C539.296 128.269 647.187 122.737 740.456 117.2ZM1142.88 185.878C1052.2 133.72 927.054 108.126 740.575 119.196C647.26 124.736 539.506 130.262 447.396 146.627C401.343 154.809 359.247 165.693 324.85 180.619C290.442 195.55 263.832 214.486 248.62 238.711C233.415 262.926 228.946 293.487 233.144 326.61C237.341 359.732 250.198 395.35 269.556 429.587C308.282 498.079 372.919 560.863 445.879 587.016C518.801 613.155 606.771 600.192 695.711 574.896C740.161 562.253 784.803 546.546 827.875 531.143C870.935 515.744 912.438 500.643 950.562 489.24C1026.78 466.442 1073.16 452.116 1105.52 435.562C1137.78 419.054 1156.08 400.337 1176.06 368.666C1196.09 336.921 1210.29 304.173 1208.28 272.936C1206.28 241.797 1188.14 211.908 1142.88 185.878ZM740.178 131.093C915.746 120.649 1033.86 144.773 1119.59 194.182C1162.54 218.936 1180.12 247.611 1182.05 277.776C1183.98 307.844 1170.35 339.142 1151.46 369.144C1132.52 399.219 1115.08 417.128 1084.36 432.873C1053.74 448.572 1009.92 462.126 938.317 483.588C902.528 494.315 863.558 508.521 823.042 523.039C782.539 537.553 740.504 552.376 698.635 564.309C614.936 588.164 531.696 600.54 462.51 575.69C393.362 550.853 332.253 491.314 295.664 426.47C277.365 394.039 265.173 360.236 261.188 328.723C257.203 297.212 261.417 267.925 276.023 244.618C290.621 221.322 316.046 203.275 348.578 189.129C381.12 174.979 420.871 164.69 464.252 156.967C551.008 141.522 652.47 136.31 740.178 131.093ZM1118.59 195.915C1033.32 146.774 915.652 122.658 740.297 133.089C652.543 138.309 551.216 143.516 464.602 158.936C421.297 166.645 381.717 176.9 349.376 190.963C317.025 205.03 292.014 222.867 277.718 245.681C263.428 268.484 259.226 297.267 263.172 328.472C267.118 359.673 279.204 393.229 297.405 425.486C333.818 490.018 394.592 549.169 463.186 573.807C531.742 598.431 614.451 586.222 698.087 562.385C739.885 550.472 781.863 535.671 822.367 521.156C862.859 506.646 901.89 492.418 937.743 481.672C1009.42 460.189 1053.03 446.689 1083.45 431.093C1113.78 415.543 1130.98 397.915 1149.77 368.078C1168.6 338.168 1181.95 307.321 1180.06 277.904C1178.17 248.586 1161.13 220.436 1118.59 195.915ZM738.998 144.984C903.801 135.18 1014.68 157.828 1095.16 204.22C1135.49 227.465 1152.01 254.4 1153.83 282.745C1155.64 310.992 1142.83 340.387 1125.1 368.555C1107.32 396.796 1090.94 413.617 1062.1 428.404C1033.35 443.145 992.214 455.871 925.003 476.019C891.411 486.088 854.834 499.424 816.803 513.054C778.785 526.679 739.326 540.594 700.023 551.797C621.457 574.192 543.308 585.816 478.348 562.481C413.425 539.158 356.054 483.252 321.705 422.369C304.526 391.919 293.078 360.177 289.336 330.584C285.595 300.993 289.552 273.484 303.271 251.589C316.983 229.704 340.86 212.756 371.401 199.474C401.953 186.187 439.271 176.527 479.992 169.276C561.43 154.776 656.673 149.882 738.998 144.984ZM1094.16 205.953C1014.15 159.829 903.707 137.189 739.116 146.982C656.745 151.882 561.639 156.77 480.343 171.245C439.697 178.482 402.55 188.109 372.199 201.308C341.839 214.511 318.375 231.249 304.965 252.651C291.562 274.042 287.618 301.048 291.32 330.333C295.023 359.615 306.365 391.109 323.446 421.386C357.619 481.957 414.655 537.474 479.023 560.598C543.354 583.708 620.973 572.251 699.476 549.874C738.707 538.691 778.108 524.797 816.128 511.171C854.135 497.55 890.774 484.191 924.429 474.103C991.711 453.934 1032.64 441.263 1061.19 426.625C1089.64 412.033 1105.78 395.492 1123.41 367.489C1141.08 339.413 1153.6 310.469 1151.83 282.873C1150.07 255.376 1134.09 228.966 1094.16 205.953ZM736.837 160.035C890.517 150.923 993.922 171.97 1068.98 215.094C1106.6 236.705 1122.02 261.754 1123.72 288.128C1125.42 314.403 1113.46 341.738 1096.93 367.919C1080.34 394.174 1065.05 409.816 1038.15 423.565C1011.34 437.267 972.972 449.095 910.303 467.818C878.982 477.176 844.876 489.569 809.413 502.236C773.963 514.899 737.167 527.832 700.517 538.244C627.255 559.058 554.366 569.866 493.773 548.171C433.216 526.49 379.709 474.521 347.673 417.928C331.65 389.623 320.972 360.115 317.482 332.601C313.991 305.089 317.682 279.505 330.485 259.139C343.282 238.783 365.561 223.025 394.046 210.679C422.541 198.328 457.344 189.349 495.317 182.61C571.26 169.134 660.073 164.587 736.837 160.035ZM1067.99 216.828C993.391 173.972 890.424 152.931 736.956 162.031C660.146 166.586 571.467 171.129 495.666 184.58C457.768 191.306 423.135 200.25 394.841 212.514C366.537 224.782 344.672 240.33 332.179 260.203C319.692 280.065 316.015 305.146 319.466 332.35C322.917 359.551 333.489 388.811 349.413 416.943C381.272 473.223 434.443 524.805 494.446 546.288C554.412 567.758 626.772 557.116 699.971 536.32C736.55 525.928 773.289 513.017 808.74 500.354C844.179 487.695 878.345 475.279 909.73 465.902C972.47 447.158 1010.63 435.384 1037.24 421.783C1063.76 408.229 1078.8 392.867 1095.23 366.851C1111.71 340.761 1123.38 313.879 1121.73 288.257C1120.08 262.734 1105.2 238.207 1067.99 216.828ZM735.657 173.928C878.573 165.454 974.744 185.025 1044.56 225.132C1079.56 245.234 1093.92 268.544 1095.5 293.097C1097.07 317.551 1085.95 342.983 1070.57 367.33C1055.14 391.751 1040.92 406.305 1015.89 419.096C990.947 431.841 955.262 442.842 896.987 460.25C867.864 468.95 836.152 480.473 803.174 492.251C770.209 504.025 735.99 516.05 701.906 525.733C633.777 545.086 565.979 555.142 509.61 534.962C453.279 514.795 403.51 466.46 373.714 413.827C358.811 387.502 348.877 360.056 345.63 334.462C342.383 308.871 345.815 285.064 357.732 266.109C369.643 247.165 390.375 232.506 416.869 221.024C443.374 209.536 475.743 201.186 511.058 194.92C581.682 182.388 664.276 178.16 735.657 173.928ZM1043.57 226.865C974.213 187.026 878.479 167.463 735.775 175.924C664.348 180.159 581.89 184.382 511.407 196.889C476.168 203.142 443.969 211.458 417.665 222.859C391.351 234.263 371.033 248.712 359.426 267.174C347.826 285.625 344.406 308.927 347.614 334.211C350.822 359.493 360.649 386.691 375.454 412.842C405.073 465.162 454.506 513.111 510.284 533.079C566.025 553.034 633.294 543.144 701.359 523.809C735.373 514.147 769.534 502.142 802.501 490.367C835.455 478.597 867.229 467.052 896.415 458.333C954.761 440.903 990.237 429.958 1014.98 417.316C1039.63 404.719 1053.6 390.445 1068.88 366.263C1084.2 342.007 1095.04 317.027 1093.5 293.226C1091.98 269.524 1078.16 246.736 1043.57 226.865ZM735.379 187.819C867.171 179.985 955.87 198.08 1020.27 235.17C1052.55 253.765 1065.81 275.336 1067.27 298.067C1068.73 320.699 1058.46 344.228 1044.28 366.741C1030.05 389.328 1016.92 402.794 993.823 414.627C970.817 426.414 937.904 436.586 884.171 452.68C857.319 460.723 828.078 471.375 797.668 482.265C767.27 493.15 735.715 504.269 704.283 513.222C641.458 531.115 578.919 540.418 526.916 521.752C474.951 503.1 429.046 458.398 401.564 409.726C387.818 385.381 378.654 359.997 375.658 336.323C372.663 312.652 375.827 290.624 386.828 273.081C397.822 255.549 416.956 241.987 441.394 231.367C465.842 220.744 495.697 213.023 528.264 207.23C593.393 195.643 669.559 191.732 735.379 187.819ZM1019.27 236.903C955.337 200.081 867.077 181.995 735.497 189.817C669.631 193.732 593.602 197.637 528.614 209.198C496.123 214.979 466.439 222.666 442.191 233.202C417.934 243.743 399.214 257.094 388.523 274.144C377.838 291.183 374.685 312.708 377.642 336.072C380.598 359.435 389.657 384.571 403.305 408.742C430.611 457.102 476.181 501.417 527.592 519.87C578.965 538.31 640.974 529.173 703.735 511.298C735.096 502.366 766.595 491.268 796.994 480.382C827.381 469.501 856.681 458.826 883.597 450.765C937.401 434.65 970.106 424.532 992.911 412.848C1015.63 401.21 1028.5 388.023 1042.58 365.675C1056.71 343.253 1066.69 320.176 1065.28 298.194C1063.87 276.312 1051.15 255.265 1019.27 236.903ZM733.218 201.712C853.887 194.516 935.113 211.134 994.091 245.208C1023.67 262.295 1035.83 282.127 1037.17 303.035C1038.5 323.845 1029.09 345.472 1016.1 366.151C1003.07 386.904 991.038 399.283 969.876 410.158C948.805 420.988 918.662 430.331 869.472 445.11C844.89 452.496 818.123 462.278 790.28 472.279C762.45 482.276 733.558 492.488 704.777 500.71C647.256 517.144 589.978 525.695 542.34 508.543C494.74 491.405 452.698 450.334 427.53 405.623C414.942 383.259 406.548 359.938 403.804 338.185C401.06 316.434 403.958 296.184 414.042 280.053C424.12 263.932 441.654 251.468 464.036 241.712C486.428 231.952 513.769 224.86 543.588 219.538C603.222 208.896 672.96 205.305 733.218 201.712ZM993.09 246.941C934.578 213.136 853.793 196.526 733.337 203.709C673.033 207.305 603.43 210.89 543.939 221.507C514.195 226.815 487.025 233.874 464.835 243.546C442.635 253.223 425.514 265.474 415.738 281.112C405.969 296.741 403.083 316.488 405.788 337.934C408.493 359.377 416.782 382.452 429.273 404.643C454.266 449.042 495.972 489.723 543.017 506.661C590.023 523.586 646.771 515.203 704.229 498.787C732.937 490.585 761.773 480.394 789.605 470.397C817.423 460.404 844.252 450.6 868.897 443.195C918.158 428.395 948.092 419.106 968.962 408.38C989.742 397.701 1001.52 385.602 1014.41 365.088C1027.34 344.501 1036.46 323.324 1035.17 303.163C1033.89 283.1 1022.26 263.793 993.09 246.941ZM732.038 216.763C841.942 210.26 915.933 225.277 969.665 256.081C996.616 271.532 1007.72 289.479 1008.94 308.418C1010.16 327.258 1001.57 346.825 989.741 365.517C977.864 384.283 966.898 395.483 947.609 405.319C928.411 415.11 900.951 423.556 856.155 436.911C833.771 443.585 809.396 452.423 784.038 461.462C758.693 470.496 732.379 479.726 706.165 487.157C653.777 502.009 601.59 509.743 558.18 494.234C514.806 478.737 476.502 441.605 453.572 401.184C442.103 380.965 434.454 359.877 431.952 340.202C429.451 320.53 432.091 302.204 441.291 287.601C450.484 273.009 466.472 261.737 486.862 252.917C507.263 244.093 532.169 237.683 559.329 232.873C613.645 223.255 677.162 220.01 732.038 216.763ZM968.671 257.817C915.403 227.278 841.849 212.268 732.156 218.759C677.234 222.009 613.852 225.249 559.678 234.842C532.593 239.638 507.857 246.016 487.656 254.753C467.445 263.495 451.872 274.558 442.983 288.667C434.102 302.765 431.475 320.585 433.937 339.949C436.398 359.311 443.941 380.152 455.313 400.197C478.064 440.306 516.032 477.052 558.853 492.351C601.636 507.636 653.295 500.067 705.619 485.234C731.762 477.822 758.021 468.613 783.367 459.578C808.701 450.548 833.137 441.687 855.584 434.995C900.451 421.619 927.702 413.226 946.7 403.537C965.608 393.895 976.326 382.974 988.052 364.447C999.825 345.847 1008.12 326.733 1006.95 308.547C1005.78 290.46 995.219 273.037 968.671 257.817ZM731.76 230.654C830.54 224.79 897.059 238.331 945.371 266.119C969.613 280.062 979.619 296.27 980.721 313.387C981.816 330.405 974.083 348.07 963.448 364.928C952.767 381.859 942.899 391.97 925.545 400.85C908.281 409.683 883.593 417.302 843.339 429.342C823.226 435.358 801.323 443.327 778.533 451.477C755.756 459.622 732.104 467.945 708.542 474.647C661.458 488.038 614.531 495.02 575.485 481.025C536.478 467.042 502.037 433.543 481.422 397.082C471.11 378.843 464.229 359.817 461.98 342.063C459.73 324.311 462.104 307.763 470.387 294.572C478.663 281.392 493.052 271.218 511.387 263.262C529.731 255.301 552.123 249.519 576.535 245.182C625.355 236.508 682.445 233.582 731.76 230.654ZM944.374 267.854C896.527 240.333 830.447 226.8 731.878 232.651C682.518 235.582 625.564 238.503 576.886 247.151C552.549 251.475 530.326 257.223 512.183 265.097C494.029 272.975 480.054 282.938 472.081 295.636C464.115 308.323 461.753 324.366 463.964 341.812C466.174 359.254 472.949 378.032 483.163 396.098C503.602 432.246 537.706 465.358 576.16 479.142C614.577 492.912 660.975 486.097 707.995 472.723C731.486 466.041 755.081 457.739 777.859 449.593C800.626 441.451 822.589 433.461 842.766 427.426C883.091 415.364 907.571 407.8 924.634 399.069C941.607 390.385 951.226 380.553 961.757 363.86C972.334 347.094 979.778 329.882 978.725 313.516C977.678 297.249 968.212 281.565 944.374 267.854ZM730.579 244.547C818.596 239.322 877.882 251.386 920.949 276.157C942.568 288.592 951.512 303.061 952.496 318.357C953.474 333.553 946.57 349.315 937.092 364.339C927.567 379.436 918.763 388.461 903.281 396.382C887.89 404.257 865.882 411.047 830.023 421.773C812.108 427.131 792.598 434.229 772.293 441.49C752.001 448.747 730.926 456.163 709.931 462.135C667.98 474.067 626.143 480.297 591.322 467.816C556.54 455.348 525.839 425.482 507.463 392.982C498.27 376.723 492.136 359.759 490.129 343.924C488.123 328.092 490.237 313.323 497.634 301.543C505.024 289.774 517.866 280.698 534.21 273.606C550.564 266.509 570.523 261.356 592.276 257.491C635.778 249.763 686.647 247.155 730.579 244.547ZM919.951 277.891C877.349 253.387 818.501 241.332 730.697 246.544C686.719 249.155 635.986 251.756 592.626 259.46C570.948 263.311 551.159 268.431 535.006 275.441C518.842 282.455 506.415 291.32 499.328 302.607C492.248 313.882 490.145 328.148 492.112 343.673C494.079 359.196 500.109 375.912 509.204 391.997C527.403 424.185 557.768 453.663 591.997 465.933C626.189 478.189 667.496 472.125 709.384 460.211C730.308 454.26 751.326 446.865 771.62 439.608C791.902 432.355 811.472 425.234 829.451 419.857C865.381 409.11 887.179 402.374 902.37 394.602C917.471 386.876 926.026 378.13 935.4 363.272C944.821 348.339 951.436 333.029 950.5 318.484C949.571 304.038 941.167 290.093 919.951 277.891ZM728.418 258.44C805.312 253.853 857.125 264.441 894.773 286.196C913.683 297.124 921.527 309.852 922.39 323.325C923.246 336.7 917.198 350.559 908.916 363.749C900.588 377.012 892.882 384.948 879.335 391.912C865.878 398.83 846.642 404.792 815.325 414.203C799.681 418.905 782.644 425.132 764.906 431.505C747.181 437.873 728.769 444.382 710.426 449.624C673.779 460.096 637.201 465.573 606.745 454.606C576.328 443.651 549.491 417.418 533.43 388.879C525.394 374.601 520.029 359.699 518.274 345.785C516.52 331.874 518.368 318.882 524.848 308.515C531.321 298.158 542.564 290.179 556.852 283.95C571.15 277.717 588.594 273.193 607.6 269.801C645.607 263.017 690.048 260.728 728.418 258.44ZM893.773 287.928C856.591 266.442 805.217 255.862 728.537 260.436C690.121 262.727 645.816 265.011 607.951 271.77C589.021 275.149 571.747 279.639 557.65 285.784C543.544 291.934 532.715 299.701 526.543 309.575C520.378 319.44 518.542 331.929 520.258 345.535C521.974 359.139 527.235 373.793 535.173 387.898C551.059 416.125 577.561 441.969 607.423 452.724C637.247 463.464 673.293 458.155 709.876 447.701C728.148 442.48 746.503 435.991 764.23 429.622C781.943 423.258 799.042 417.009 814.75 412.288C846.138 402.856 865.165 396.948 878.421 390.134C891.586 383.366 899.044 375.71 907.223 362.686C915.448 349.587 921.209 336.179 920.394 323.453C919.585 310.826 912.277 298.621 893.773 287.928ZM728.141 273.489C793.91 269.596 838.248 278.584 870.475 297.069C886.673 306.361 893.424 317.205 894.166 328.708C894.902 340.112 889.707 351.912 882.62 363.114C875.487 374.391 868.879 381.148 857.267 387.073C845.745 392.952 829.281 398.017 802.506 406.004C789.132 409.993 774.567 415.278 759.398 420.688C744.241 426.093 728.492 431.62 712.801 436.07C681.458 444.961 650.142 449.622 624.055 440.297C598.005 430.985 575.03 408.689 561.281 384.44C554.402 372.307 549.806 359.638 548.302 347.803C546.798 335.97 548.38 324.903 553.945 316.064C559.504 307.236 569.149 300.448 581.38 295.155C593.621 289.858 608.55 286.015 624.808 283.135C657.319 277.375 695.332 275.432 728.141 273.489ZM869.48 298.804C837.717 280.585 793.816 271.605 728.259 275.486C695.404 277.432 657.526 279.369 625.156 285.105C608.974 287.972 594.214 291.781 582.174 296.991C570.123 302.206 560.893 308.783 555.638 317.129C550.39 325.464 548.822 336.026 550.286 347.551C551.75 359.073 556.24 371.494 563.021 383.453C576.591 407.39 599.23 429.299 624.728 438.413C650.188 447.515 680.976 443.019 712.255 434.147C727.875 429.716 743.567 424.21 758.726 418.804C773.872 413.402 788.498 408.096 801.935 404.088C828.781 396.08 845.036 391.069 856.357 385.292C867.589 379.561 873.948 373.083 880.931 362.045C887.96 350.933 892.863 339.587 892.17 328.837C891.483 318.186 885.276 307.865 869.48 298.804ZM726.96 287.382C781.965 284.127 819.07 291.638 846.052 307.107C859.628 314.89 865.316 323.994 865.941 333.677C866.56 343.26 862.193 353.157 856.264 362.526C850.287 371.968 844.742 377.638 835.002 382.605C825.353 387.526 811.571 391.763 789.191 398.435C778.015 401.767 765.842 406.181 753.157 410.702C740.485 415.219 727.314 419.839 714.19 423.56C687.98 430.99 661.754 434.899 639.892 427.088C618.067 419.29 598.831 400.628 587.322 380.339C581.563 370.186 577.711 359.58 576.45 349.664C575.19 339.751 576.514 330.462 581.193 323.034C585.866 315.618 593.963 309.929 604.203 305.5C614.454 301.066 626.949 297.853 640.548 295.444C667.741 290.629 699.533 289.005 726.96 287.382ZM845.058 308.842C818.54 293.639 781.871 286.137 727.078 289.379C699.606 291.005 667.948 292.623 640.897 297.413C627.373 299.808 615.047 302.988 604.997 307.335C594.937 311.687 587.253 317.166 582.885 324.1C578.524 331.023 577.214 339.807 578.435 349.412C579.655 359.015 583.401 369.372 589.062 379.352C600.393 399.327 619.292 417.604 640.565 425.204C661.8 432.791 687.497 429.048 713.644 421.636C726.697 417.935 739.813 413.336 752.486 408.818C765.147 404.306 777.38 399.869 788.619 396.519C811.07 389.825 824.645 385.642 834.094 380.823C843.453 376.051 848.749 370.66 854.574 361.456C860.446 352.179 864.522 342.735 863.945 333.806C863.375 324.976 858.231 316.394 845.058 308.842ZM724.799 301.275C768.681 298.659 798.314 304.693 819.877 317.147C830.744 323.423 835.331 330.788 835.835 338.647C836.332 346.407 832.823 354.4 828.089 361.935C823.309 369.543 818.863 374.125 811.058 378.135C803.343 382.098 792.331 385.508 774.493 390.865C765.588 393.54 755.889 397.083 745.772 400.716C735.667 404.344 725.158 408.057 714.686 411.048C693.78 417.018 672.812 420.176 655.315 413.878C637.855 407.594 622.482 392.563 613.288 376.235C608.686 368.063 605.605 359.519 604.596 351.525C603.587 343.533 604.644 336.022 608.405 330.007C612.161 324.002 618.659 319.411 626.844 315.845C635.038 312.274 645.02 309.689 655.871 307.753C677.569 303.882 702.934 302.578 724.799 301.275ZM818.877 318.878C797.78 306.694 768.587 300.668 724.918 303.271C703.007 304.577 677.779 305.877 656.223 309.723C645.447 311.645 635.636 314.196 627.643 317.679C619.64 321.166 613.555 325.545 610.102 331.068C606.655 336.58 605.61 343.588 606.58 351.275C607.55 358.958 610.527 367.255 615.031 375.254C624.05 391.27 639.086 405.912 655.991 411.996C672.858 418.067 693.294 415.077 714.136 409.125C724.537 406.155 734.989 402.462 745.095 398.833C755.188 395.209 764.949 391.643 773.918 388.949C791.827 383.571 802.63 380.217 810.144 376.357C817.567 372.543 821.765 368.241 826.396 360.871C831.072 353.428 834.295 345.885 833.84 338.775C833.391 331.762 829.339 324.92 818.877 318.878ZM723.618 315.167C756.736 313.19 779.137 317.748 795.455 327.185C803.7 331.953 807.225 337.578 807.611 343.615C807.991 349.554 805.31 355.645 801.732 361.346C798.11 367.12 794.727 370.615 788.794 373.667C782.951 376.673 774.622 379.253 761.179 383.296C754.471 385.313 747.164 387.985 739.532 390.73C731.913 393.469 723.981 396.276 716.074 398.537C700.301 403.048 684.425 405.453 671.151 400.669C657.917 395.899 646.284 384.501 639.329 372.134C635.847 365.942 633.51 359.461 632.744 353.386C631.979 347.314 632.777 341.582 635.652 336.979C638.521 332.385 643.473 328.892 649.667 326.19C655.871 323.483 663.419 321.526 671.611 320.063C687.991 317.137 707.136 316.151 723.618 315.167ZM794.454 328.916C778.602 319.749 756.642 315.199 723.737 317.163C707.209 318.15 688.201 319.131 671.963 322.031C663.847 323.481 656.47 325.404 650.467 328.023C644.454 330.646 639.916 333.927 637.349 338.037C634.788 342.138 634.002 347.369 634.729 353.136C635.455 358.9 637.687 365.134 641.072 371.153C647.852 383.209 659.15 394.217 671.829 398.787C684.471 403.343 699.815 401.107 715.524 396.614C723.359 394.374 731.234 391.588 738.856 388.848C746.464 386.112 753.832 383.417 760.603 381.381C774.117 377.317 782.238 374.79 787.879 371.888C793.43 369.032 796.566 365.819 800.039 360.283C803.559 354.674 805.954 349.034 805.615 343.743C805.283 338.551 802.294 333.45 794.454 328.916ZM723.342 330.217C745.333 328.933 760.256 331.89 771.151 338.054C776.683 341.183 779.12 344.923 779.387 348.997C779.647 352.97 777.815 357.004 775.434 360.717C773.004 364.505 770.718 366.819 766.721 368.83C762.814 370.796 757.257 372.479 748.356 375.098C743.918 376.403 739.083 378.133 734.019 379.914C728.967 381.691 723.699 383.516 718.445 384.985C707.977 387.914 697.366 389.5 688.465 386.361C679.6 383.236 671.828 375.779 667.184 367.7C664.857 363.653 663.288 359.403 662.773 355.405C662.258 351.409 662.79 347.597 664.754 344.521C666.71 341.457 670.064 339.157 674.199 337.392C678.346 335.622 683.378 334.348 688.821 333.397C699.705 331.495 712.421 330.855 723.342 330.217ZM770.167 339.795C759.733 333.892 745.242 330.942 723.458 332.214C712.491 332.854 699.91 333.49 689.166 335.367C683.796 336.306 678.932 337.547 674.984 339.232C671.026 340.921 668.089 343.015 666.44 345.597C664.8 348.166 664.282 351.466 664.757 355.15C665.231 358.831 666.69 362.83 668.917 366.703C673.38 374.466 680.813 381.542 689.13 384.475C697.411 387.394 707.501 385.97 717.906 383.059C723.09 381.609 728.302 379.805 733.356 378.027C738.396 376.254 743.291 374.503 747.791 373.179C756.763 370.539 762.114 368.909 765.821 367.043C769.439 365.223 771.474 363.185 773.75 359.637C776.074 356.013 777.608 352.438 777.392 349.127C777.182 345.917 775.3 342.699 770.167 339.795ZM722.162 344.109C733.387 343.465 741.074 344.944 746.723 348.088C749.628 349.705 751.013 351.705 751.163 353.965C751.307 356.123 750.297 358.257 749.073 360.135C747.799 362.09 746.574 363.313 744.45 364.364C742.417 365.371 739.543 366.225 735.036 367.529C732.796 368.178 730.354 369.038 727.774 369.931C725.208 370.819 722.517 371.736 719.83 372.476C714.495 373.944 708.978 374.774 704.307 373.153C699.669 371.545 695.635 367.725 693.228 363.606C692.02 361.538 691.194 359.349 690.922 357.269C690.65 355.189 690.924 353.152 692.006 351.485C693.078 349.834 694.886 348.633 697.028 347.734C699.183 346.829 701.781 346.184 704.565 345.705C710.129 344.749 716.623 344.428 722.162 344.109ZM745.75 349.836C740.559 346.947 733.299 345.472 722.277 346.106C716.693 346.426 710.331 346.744 704.904 347.677C702.193 348.143 699.761 348.756 697.803 349.578C695.832 350.406 694.444 351.403 693.684 352.574C692.934 353.73 692.674 355.249 692.904 357.009C693.135 358.768 693.848 360.704 694.954 362.597C697.175 366.398 700.868 369.844 704.962 371.265C709.023 372.673 714.027 371.998 719.3 370.547C721.917 369.827 724.552 368.93 727.12 368.041C729.676 367.157 732.179 366.275 734.481 365.609C739.057 364.284 741.726 363.481 743.563 362.572C745.309 361.708 746.281 360.755 747.398 359.042C748.565 357.252 749.266 355.582 749.167 354.098C749.075 352.716 748.264 351.236 745.75 349.836Z" fill="url(#paint0_radial_246_12)" fill-opacity="0.42"/>
<defs>
<radialGradient id="paint0_radial_246_12" cx="0" cy="0" r="1" gradientUnits="userSpaceOnUse" gradientTransform="translate(720.993 359.238) scale(412.366 260.84)">
<stop offset="0.682692" stop-color="#35EDDE"/>
<stop offset="1" stop-color="#B5EF2E"/>
</radialGradient>
</defs>
</svg>
